Coordinates
version=1
nRows=19
nColumns=24
inDegrees=yes

Units are S.I. units (second, meters, Newtons, ...)
Angles are in degrees.

endheader
time	pelvis_tilt	pelvis_list	pelvis_rotation	pelvis_tx	pelvis_ty	pelvis_tz	hip_flexion_r	hip_adduction_r	hip_rotation_r	knee_angle_r	ankle_angle_r	subtalar_angle_r	mtp_angle_r	hip_flexion_l	hip_adduction_l	hip_rotation_l	knee_angle_l	ankle_angle_l	subtalar_angle_l	mtp_angle_l	lumbar_extension	lumbar_bending	lumbar_rotation
      1.12883333	      1.15534397	      6.92998278	     -3.43034442	      0.13642237	      0.99356990	      0.35891749	     -6.17155920	    -10.02347177	     -5.96786998	    -47.13782975	    -17.36225960	     -4.52860817	     40.96289351	     17.18589839	     12.45078692	      2.93550244	    -17.37580366	     -0.88997185	    -18.85062328	      0.46278893	    -12.72503634	     -2.82357084	      2.02588158
      1.13300000	      1.22067158	      7.17000680	     -3.46906783	      0.14185000	      0.99321424	      0.35851314	     -5.65342136	    -10.43369753	     -5.93411278	    -48.44712222	    -18.63326709	     -4.80974989	     40.27212194	     17.10042647	     12.76916082	      2.79322479	    -17.99166592	     -0.29010422	    -18.66464200	      0.11171609	    -12.78737859	     -3.09251197	      1.90100994
      1.13716667	      1.33990749	      7.45852014	     -3.55232606	      0.14724783	      0.99294724	      0.35813113	     -5.16004356	    -10.90794221	     -5.86167833	    -49.77007124	    -19.82771434	     -5.18212156	     40.06437139	     16.89612813	     13.14710948	      2.71845834	    -18.44930028	      0.11535684	    -18.80516728	      0.05173552	    -12.92171620	     -3.43435556	      1.75578009
      1.14133333	      1.44845385	      7.70423101	     -3.63229149	      0.15262839	      0.99273767	      0.35776957	     -4.65092489	    -11.31945716	     -5.75679637	    -51.06173359	    -21.01364143	     -5.46515386	     34.77606979	     16.68651440	     13.47062631	      2.61383652	    -18.89102199	      0.69032999	    -18.74219556	     -1.33818714	    -13.02807946	     -3.69543625	      1.64416890
      1.14550000	      1.52765166	      7.96536944	     -3.70440978	      0.15798261	      0.99252576	      0.35739169	     -4.09676733	    -11.74792569	     -5.65254363	    -52.33093828	    -22.19329188	     -5.81450852	     34.68131854	     16.47797806	     13.81203669	      2.54045545	    -19.25808680	      1.11720385	    -18.78373149	     -1.32696335	    -13.11019588	     -3.99235632	      1.48848855
      1.14966667	      1.63488898	      8.17320755	     -3.79194733	      0.16330976	      0.99242164	      0.35705990	     -3.57156185	    -12.09943225	     -5.50022334	    -53.54135443	    -23.39585087	     -6.25921005	     34.26921687	     16.21695048	     14.08804340	      2.43465083	    -19.59278604	      1.66338232	    -18.70884622	     -1.32349476	    -13.21314910	     -4.19566885	      1.34196793
      1.15383333	      1.73459831	      8.41058762	     -3.89741474	      0.16860677	      0.99231143	      0.35675032	     -3.00690170	    -12.48878177	     -5.33165164	    -54.77447473	    -24.39606256	     -6.48848316	     28.77980898	     15.95418123	     14.38074375	      2.25263709	    -19.88236509	      2.11947482	    -18.59073717	     -1.48795103	    -13.31518839	     -4.45161622	      1.21028609
      1.15800000	      1.82119671	      8.66046451	     -3.95967690	      0.17391551	      0.99224956	      0.35635216	     -2.44320782	    -12.89347949	     -5.21632550	    -55.94700777	    -25.39250668	     -6.84032228	     28.68560606	     15.64180575	     14.71946964	      2.26370019	    -20.05590013	      2.51994506	    -18.65223245	     -1.47812625	    -13.39264214	     -4.71945031	      1.07144126
      1.16216667	      1.94036842	      8.88183362	     -4.05226812	      0.17918449	      0.99229209	      0.35602610	     -1.90321158	    -13.25183460	     -5.04582123	    -57.07105979	    -26.33691596	     -7.23124381	     28.50607881	     15.28004090	     15.01306854	      2.20242878	    -20.19237525	      2.89909329	    -18.66631813	     -1.47130243	    -13.51721732	     -4.95768013	      0.92156986
      1.16633333	      2.04065373	      9.05272642	     -4.15932069	      0.18441838	      0.99238734	      0.35576493	     -1.33132715	    -13.52648041	     -4.81851049	    -58.16245338	    -27.10904396	     -7.52439644	     21.91948884	     14.92980852	     15.23772831	      2.08903072	    -20.31913854	      3.33016484	    -18.59291424	     -1.61102617	    -13.62450124	     -5.12904088	      0.80521508
      1.17050000	      2.13939697	      9.25746381	     -4.23925949	      0.18966658	      0.99250663	      0.35542347	     -0.76552431	    -13.85243847	     -4.64414386	    -59.20615499	    -27.79907984	     -7.84852237	     21.83808132	     14.53475816	     15.51828262	      2.07947668	    -20.34857858	      3.67250430	    -18.61232892	     -1.60171703	    -13.71798295	     -5.33212285	      0.64573141
      1.17466667	      2.24147906	      9.43234006	     -4.33425189	      0.19488919	      0.99269637	      0.35512261	     -0.19911832	    -14.12852908	     -4.43344808	    -60.19419525	    -28.38934399	     -8.19978685	     21.69964281	     14.11811531	     15.75939922	      2.04301774	    -20.34154997	      3.99588035	    -18.61541247	     -1.59416316	    -13.81620972	     -5.49869233	      0.49224906
      1.17883333	      2.32307094	      9.55123005	     -4.42909922	      0.20006918	      0.99294170	      0.35488195	      0.39005250	    -14.30780671	     -4.18008188	    -61.13697087	    -28.77282714	     -8.48248876	     15.93857671	     13.71350253	     15.93151354	      1.99415216	    -20.32958604	      4.35851542	    -18.54545010	     -1.65705089	    -13.90525742	     -5.61596312	      0.36509242
      1.18300000	      2.42434245	      9.70199494	     -4.52359405	      0.20526545	      0.99325021	      0.35460579	      0.95505736	    -14.53415741	     -3.95004140	    -62.02496370	    -29.05188323	     -8.78150032	     15.87813432	     13.25083089	     16.14751076	      1.98845829	    -20.23063283	      4.62264737	    -18.55675083	     -1.64998968	    -14.00250181	     -5.75748127	      0.20163744
      1.18716667	      2.51599243	      9.81951507	     -4.61791408	      0.21044731	      0.99361711	      0.35434505	      1.52374129	    -14.70608879	     -3.70408493	    -62.85043223	    -29.17921397	     -9.07747062	     15.78231671	     12.77905701	     16.32619474	      1.98711378	    -20.10010971	      4.87952128	    -18.56748497	     -1.64399409	    -14.09084313	     -5.85335629	      0.05130055
      1.19133333	      2.60738494	      9.91521307	     -4.71068224	      0.21561681	      0.99404328	      0.35410453	      2.08542931	    -14.83874344	     -3.45067334	    -63.61748695	    -29.14432772	     -9.36738498	     15.64610807	     12.28709303	     16.47981990	      1.99282776	    -19.93268980	      5.11233474	    -18.56459378	     -1.63930576	    -14.18231005	     -5.93246686	     -0.10299550
      1.19550000	      2.70084938	      9.98705055	     -4.80455377	      0.22077894	      0.99454157	      0.35387296	      2.63624142	    -14.93022272	     -3.18652797	    -64.32146607	    -28.93237263	     -9.63595959	     15.50484080	     11.77556615	     16.60930065	      2.01160716	    -19.73842880	      5.33154053	    -18.56397746	     -1.63563139	    -14.26676859	     -5.97396775	     -0.24613067
      1.19966667	      2.77847107	     10.04372711	     -4.88231057	      0.22593337	      0.99507475	      0.35364559	      3.19500808	    -14.98798670	     -2.92604781	    -64.98265419	    -28.44416478	     -9.75389642	      9.68327399	     11.24765058	     16.72799668	      2.10189879	    -19.48369910	      5.48401478	    -18.62603608	     -1.73317003	    -14.33550230	     -6.00911014	     -0.41052492
      1.20383333	      2.84628506	     10.05646447	     -4.97113842	      0.23106147	      0.99567060	      0.35345288	      3.75232495	    -14.97604571	     -2.64344323	    -65.55775128	    -27.91762777	    -10.01641751	      9.67200305	     10.73643014	     16.78615224	      2.11192374	    -19.24763427	      5.67174619	    -18.58680897	     -1.72892526	    -14.40104326	     -5.98054637	     -0.53952217
